<svg width="215" height="21" viewBox="0 0 215 21" fill="none" xmlns="http://www.w3.org/2000/svg">
<path d="M7.04617 2C3.16102 2 0 5.16102 0 9.04617C0 12.9315 3.16102 16.0923 7.04617 16.0923C10.9315 16.0923 14.0923 12.9315 14.0923 9.04617C14.0923 5.16102 10.9315 2 7.04617 2ZM7.04617 14.7915C3.87821 14.7915 1.30083 12.2142 1.30083 9.0462C1.30083 5.87824 3.87821 3.30083 7.04617 3.30083C10.2141 3.30083 12.7915 5.87821 12.7915 9.04617C12.7915 12.2141 10.2141 14.7915 7.04617 14.7915Z" fill="#363636"/>
<path d="M15.8097 16.8898L12.0806 13.1608C11.8265 12.9067 11.415 12.9067 11.1609 13.1608C10.9068 13.4147 10.9068 13.8266 11.1609 14.0805L14.89 17.8095C15.017 17.9366 15.1833 18.0001 15.3498 18.0001C15.5161 18.0001 15.6826 17.9366 15.8097 17.8095C16.0638 17.5557 16.0638 17.1437 15.8097 16.8898Z" fill="#363636"/>
<path d="M49.2588 17H47.5625V5.5918H41.252V17H39.5645V4.20312H49.2588V17ZM51.6494 12.1572C51.6494 11.2256 51.8311 10.3877 52.1943 9.64355C52.5635 8.89941 53.0732 8.3252 53.7236 7.9209C54.3799 7.5166 55.127 7.31445 55.9648 7.31445C57.2598 7.31445 58.3057 7.7627 59.1025 8.65918C59.9053 9.55566 60.3066 10.748 60.3066 12.2363V12.3506C60.3066 13.2764 60.1279 14.1084 59.7705 14.8467C59.4189 15.5791 58.9121 16.1504 58.25 16.5605C57.5938 16.9707 56.8379 17.1758 55.9824 17.1758C54.6934 17.1758 53.6475 16.7275 52.8447 15.8311C52.0479 14.9346 51.6494 13.748 51.6494 12.2715V12.1572ZM53.2842 12.3506C53.2842 13.4053 53.5273 14.252 54.0137 14.8906C54.5059 15.5293 55.1621 15.8486 55.9824 15.8486C56.8086 15.8486 57.4648 15.5264 57.9512 14.8818C58.4375 14.2314 58.6807 13.3232 58.6807 12.1572C58.6807 11.1143 58.4316 10.2705 57.9336 9.62598C57.4414 8.97559 56.7852 8.65039 55.9648 8.65039C55.1621 8.65039 54.5146 8.96973 54.0225 9.6084C53.5303 10.2471 53.2842 11.1611 53.2842 12.3506ZM68.498 7.49023H70.124V17H68.498V10.0654L64.1123 17H62.4863V7.49023H64.1123V14.4336L68.498 7.49023ZM76.5488 15.8486C77.1289 15.8486 77.6357 15.6729 78.0693 15.3213C78.5029 14.9697 78.7432 14.5303 78.79 14.0029H80.3281C80.2988 14.5479 80.1113 15.0664 79.7656 15.5586C79.4199 16.0508 78.957 16.4434 78.377 16.7363C77.8027 17.0293 77.1934 17.1758 76.5488 17.1758C75.2539 17.1758 74.2227 16.7451 73.4551 15.8838C72.6934 15.0166 72.3125 13.833 72.3125 12.333V12.0605C72.3125 11.1348 72.4824 10.3115 72.8223 9.59082C73.1621 8.87012 73.6484 8.31055 74.2812 7.91211C74.9199 7.51367 75.6729 7.31445 76.54 7.31445C77.6064 7.31445 78.4912 7.63379 79.1943 8.27246C79.9033 8.91113 80.2812 9.74023 80.3281 10.7598H78.79C78.7432 10.1445 78.5088 9.64062 78.0869 9.24805C77.6709 8.84961 77.1553 8.65039 76.54 8.65039C75.7139 8.65039 75.0723 8.94922 74.6152 9.54688C74.1641 10.1387 73.9385 10.9971 73.9385 12.1221V12.4297C73.9385 13.5254 74.1641 14.3691 74.6152 14.9609C75.0664 15.5527 75.7109 15.8486 76.5488 15.8486ZM85.1182 12.9482H83.9316V17H82.2969V7.49023H83.9316V11.5156H84.9951L88.1943 7.49023H90.1631L86.4014 12.0605L90.4795 17H88.4141L85.1182 12.9482ZM104.12 17H102.494V8.83496H98.1172V17H96.4824V7.49023H104.12V17ZM106.3 12.1572C106.3 11.2256 106.481 10.3877 106.845 9.64355C107.214 8.89941 107.724 8.3252 108.374 7.9209C109.03 7.5166 109.777 7.31445 110.615 7.31445C111.91 7.31445 112.956 7.7627 113.753 8.65918C114.556 9.55566 114.957 10.748 114.957 12.2363V12.3506C114.957 13.2764 114.778 14.1084 114.421 14.8467C114.069 15.5791 113.562 16.1504 112.9 16.5605C112.244 16.9707 111.488 17.1758 110.633 17.1758C109.344 17.1758 108.298 16.7275 107.495 15.8311C106.698 14.9346 106.3 13.748 106.3 12.2715V12.1572ZM107.935 12.3506C107.935 13.4053 108.178 14.252 108.664 14.8906C109.156 15.5293 109.812 15.8486 110.633 15.8486C111.459 15.8486 112.115 15.5264 112.602 14.8818C113.088 14.2314 113.331 13.3232 113.331 12.1572C113.331 11.1143 113.082 10.2705 112.584 9.62598C112.092 8.97559 111.436 8.65039 110.615 8.65039C109.812 8.65039 109.165 8.96973 108.673 9.6084C108.181 10.2471 107.935 11.1611 107.935 12.3506ZM121.109 12.4209C121.109 10.833 121.417 9.58496 122.032 8.67676C122.647 7.76855 123.491 7.31445 124.563 7.31445C125.062 7.31445 125.498 7.39941 125.873 7.56934V3.5H127.499V7.62207C127.909 7.41699 128.39 7.31445 128.94 7.31445C130.019 7.31445 130.865 7.76855 131.48 8.67676C132.096 9.58496 132.403 10.8945 132.403 12.6055C132.403 14.0059 132.096 15.1191 131.48 15.9453C130.871 16.7715 130.03 17.1846 128.958 17.1846C128.39 17.1846 127.903 17.0908 127.499 16.9033V20.6562H125.873V16.9297C125.486 17.0996 125.044 17.1846 124.546 17.1846C123.479 17.1846 122.639 16.7715 122.023 15.9453C121.414 15.1191 121.109 13.9883 121.109 12.5527V12.4209ZM130.777 12.4209C130.777 11.2256 130.572 10.2998 130.162 9.64355C129.752 8.98145 129.187 8.65039 128.466 8.65039C128.097 8.65039 127.774 8.70898 127.499 8.82617V15.708C127.763 15.8076 128.091 15.8574 128.483 15.8574C129.21 15.8574 129.772 15.5762 130.171 15.0137C130.575 14.4512 130.777 13.5869 130.777 12.4209ZM122.735 12.6055C122.735 13.6719 122.926 14.4805 123.307 15.0312C123.688 15.582 124.235 15.8574 124.95 15.8574C125.29 15.8574 125.598 15.8047 125.873 15.6992V8.7998C125.627 8.7002 125.325 8.65039 124.968 8.65039C124.253 8.65039 123.702 8.96973 123.315 9.6084C122.929 10.2471 122.735 11.2461 122.735 12.6055ZM140.674 7.49023H142.3V17H140.674V10.0654L136.288 17H134.662V7.49023H136.288V14.4336L140.674 7.49023ZM152.706 7.49023V17H151.071V8.83496H147.837L147.644 12.3945C147.538 14.0293 147.263 15.1982 146.817 15.9014C146.378 16.6045 145.678 16.9707 144.717 17H144.066V15.5674L144.532 15.5322C145.06 15.4736 145.438 15.1689 145.666 14.6182C145.895 14.0674 146.041 13.0479 146.105 11.5596L146.281 7.49023H152.706ZM157.092 10.7686H159.562C160.64 10.7803 161.492 11.0615 162.119 11.6123C162.746 12.1631 163.06 12.9102 163.06 13.8535C163.06 14.8027 162.737 15.5645 162.093 16.1387C161.448 16.7129 160.581 17 159.491 17H155.466V7.49023H157.092V10.7686ZM157.092 12.0957V15.6729H159.509C160.118 15.6729 160.59 15.5176 160.924 15.207C161.258 14.8906 161.425 14.46 161.425 13.915C161.425 13.3877 161.261 12.957 160.933 12.623C160.61 12.2832 160.156 12.1074 159.57 12.0957H157.092ZM170.565 14.8467L173.8 7.49023H175.83V17H174.204V10.083L171.128 17H170.003L166.865 9.93359V17H165.239V7.49023H167.349L170.565 14.8467ZM184.32 17C184.227 16.8125 184.15 16.4785 184.092 15.998C183.336 16.7832 182.434 17.1758 181.385 17.1758C180.447 17.1758 179.677 16.9121 179.073 16.3848C178.476 15.8516 178.177 15.1777 178.177 14.3633C178.177 13.373 178.552 12.6055 179.302 12.0605C180.058 11.5098 181.118 11.2344 182.483 11.2344H184.065V10.4873C184.065 9.91895 183.896 9.46777 183.556 9.13379C183.216 8.79395 182.715 8.62402 182.053 8.62402C181.473 8.62402 180.986 8.77051 180.594 9.06348C180.201 9.35645 180.005 9.71094 180.005 10.127H178.37C178.37 9.65234 178.537 9.19531 178.871 8.75586C179.211 8.31055 179.668 7.95898 180.242 7.70117C180.822 7.44336 181.458 7.31445 182.149 7.31445C183.245 7.31445 184.104 7.58984 184.725 8.14062C185.346 8.68555 185.668 9.43848 185.691 10.3994V14.7764C185.691 15.6494 185.803 16.3438 186.025 16.8594V17H184.32ZM181.622 15.7607C182.132 15.7607 182.615 15.6289 183.072 15.3652C183.529 15.1016 183.86 14.7588 184.065 14.3369V12.3857H182.791C180.799 12.3857 179.803 12.9688 179.803 14.1348C179.803 14.6445 179.973 15.043 180.312 15.3301C180.652 15.6172 181.089 15.7607 181.622 15.7607ZM193.716 14.8467L196.95 7.49023H198.98V17H197.354V10.083L194.278 17H193.153L190.016 9.93359V17H188.39V7.49023H190.499L193.716 14.8467ZM201.635 16.1475C201.635 15.8662 201.717 15.6318 201.881 15.4443C202.051 15.2568 202.303 15.1631 202.637 15.1631C202.971 15.1631 203.223 15.2568 203.393 15.4443C203.568 15.6318 203.656 15.8662 203.656 16.1475C203.656 16.417 203.568 16.6426 203.393 16.8242C203.223 17.0059 202.971 17.0967 202.637 17.0967C202.303 17.0967 202.051 17.0059 201.881 16.8242C201.717 16.6426 201.635 16.417 201.635 16.1475ZM206.381 16.1475C206.381 15.8662 206.463 15.6318 206.627 15.4443C206.797 15.2568 207.049 15.1631 207.383 15.1631C207.717 15.1631 207.969 15.2568 208.139 15.4443C208.314 15.6318 208.402 15.8662 208.402 16.1475C208.402 16.417 208.314 16.6426 208.139 16.8242C207.969 17.0059 207.717 17.0967 207.383 17.0967C207.049 17.0967 206.797 17.0059 206.627 16.8242C206.463 16.6426 206.381 16.417 206.381 16.1475ZM211.127 16.1475C211.127 15.8662 211.209 15.6318 211.373 15.4443C211.543 15.2568 211.795 15.1631 212.129 15.1631C212.463 15.1631 212.715 15.2568 212.885 15.4443C213.061 15.6318 213.148 15.8662 213.148 16.1475C213.148 16.417 213.061 16.6426 212.885 16.8242C212.715 17.0059 212.463 17.0967 212.129 17.0967C211.795 17.0967 211.543 17.0059 211.373 16.8242C211.209 16.6426 211.127 16.417 211.127 16.1475Z" fill="#A5A5A5"/>
</svg>
